<?xml version="1.0" encoding="UTF-8" standalone="no"?>
<!DOCTYPE svg PUBLIC "-//W3C//DTD SVG 1.1//EN" "http://www.w3.org/Graphics/SVG/1.1/DTD/svg11.dtd">
<svg width="100%" height="100%" viewBox="0 0 224 211" version="1.1" xmlns="http://www.w3.org/2000/svg" xmlnsXlink="http://www.w3.org/1999/xlink" xmlSpace="preserve" xmlnsSerif="http://www.serif.com/" style="fill-rule:evenodd;clip-rule:evenodd;">
    <g transform="matrix(1,0,0,1,-237.775,-286.207)">
        <g transform="matrix(1,0,0,1,566.727,103)">
            <g id="BlackKnight">
                <path d="M-164.623,212.185C-164.623,212.185 -168.113,193.43 -168.113,190.81C-168.113,188.195 -170.728,187.759 -173.346,191.249C-175.963,194.74 -187.738,211.748 -187.738,211.748L-164.646,212.157L-164.623,212.185Z" style="fill:rgb(32,32,30);fill-rule:nonzero;stroke:rgb(32,32,30);stroke-width:2.68px;"/>
                <path d="M-321.1,356.055C-319.916,347.597 -318.3,339.535 -316.332,331.867L-310.011,329.344L-314.232,324.3C-311.826,316.189 -309.032,308.557 -305.963,301.381L-299.984,299.688L-302.938,294.633C-299.726,287.806 -296.274,281.44 -292.692,275.512L-287.117,274.392L-289.115,269.788C-285.1,263.591 -280.974,257.932 -276.878,252.795L-270.978,252.148L-272.554,247.552C-267.767,241.928 -263.1,237.035 -258.782,232.856L-252.877,232.524L-253.908,228.295C-243.379,218.767 -235.939,214.131 -235.939,214.131L-222.564,218.201C-222.564,218.201 -216.168,214.71 -210.933,211.223C-210.933,211.223 -207.446,199.593 -206.283,193.194C-205.119,186.799 -201.632,189.707 -200.469,191.451C-199.303,193.194 -187.238,206.572 -187.238,206.572C-187.238,206.572 -180.021,205.581 -174.882,206.572C-167.324,208.026 -163.833,213.114 -155.109,221.402C-148.747,227.444 -144.931,232.743 -142.752,238.41C-140.572,244.08 -143.185,244.08 -142.317,249.312C-141.441,254.548 -117.89,293.798 -115.276,298.596C-112.653,303.392 -106.338,318.068 -118.763,327.381C-122.25,330.001 -124.872,331.307 -127.049,332.18C-127.049,332.18 -130.539,331.307 -131.845,329.565C-132.078,329.252 -132.198,329.061 -132.255,328.957C-132.298,328.834 -132.32,328.834 -132.255,328.957C-132.121,329.298 -131.817,330.573 -133.155,332.18C-135.335,334.8 -138.137,334.604 -139.699,334.8C-142.024,335.089 -146.239,333.052 -149.729,327.82C-153.221,322.582 -155.401,320.839 -158.017,317.786C-160.632,314.735 -175.067,307.979 -180.699,298.596C-182.006,296.421 -185.058,297.29 -187.238,299.034C-189.418,300.78 -201.632,301.217 -206.864,292.491C-206.864,292.491 -209.338,315.432 -199.013,331.308C-182.006,357.475 -153.222,364.014 -144.494,388.444L-323.419,388.444C-323.419,380.001 -322.975,371.902 -322.168,364.107L-316.223,360.964L-321.201,356.057L-321.1,356.055Z" style="fill-rule:nonzero;stroke:rgb(32,32,30);stroke-width:2.68px;"/>
                <path d="M-228.961,224.014C-228.961,224.014 -305.137,281.009 -305.137,383.933" style="fill:none;fill-rule:nonzero;stroke:white;stroke-width:2.68px;"/>
                <path d="M-132.25,328.275C-132.313,328.181 -132.313,328.181 -132.25,328.275Z" style="fill:none;fill-rule:nonzero;stroke:rgb(32,32,30);stroke-width:2.68px;"/>
                <path d="M-213.262,263.56C-214.713,279.841 -207.152,291.47 -206.863,292.488C-206.863,292.488 -225.184,283.042 -226.929,270.535" style="fill:none;fill-rule:nonzero;stroke:white;stroke-width:2.68px;"/>
                <path d="M-206.875,292.473C-206.875,292.473 -219.088,298.436 -228.101,294.656" style="fill:none;fill-rule:nonzero;stroke:white;stroke-width:2.68px;"/>
                <path d="M-131.841,328.905C-131.841,328.905 -139.984,318.431 -142.313,313.635" style="fill:none;fill-rule:nonzero;stroke:rgb(32,32,30);stroke-width:2.68px;"/>
                <path d="M-182.021,232.288C-182.021,232.288 -168.61,232.356 -164.138,239.7C-158.032,249.735 -165.009,251.041 -165.009,251.041C-165.009,251.041 -171.988,253.225 -176.786,246.681C-181.893,239.716 -177.658,235.341 -177.658,235.341L-182,232.289L-182.021,232.288Z" style="fill:none;fill-rule:nonzero;stroke:white;stroke-width:2.68px;"/>
                <path d="M-117.023,306.221C-121.822,304.916 -124.874,305.346 -127.051,306.661C-127.051,306.661 -124.874,300.115 -128.795,294.445C-132.724,288.775 -139.267,288.34 -144.934,277.437" style="fill:none;fill-rule:nonzero;stroke:white;stroke-width:2.68px;"/>
                <path d="M-244.376,238.423L-252.651,233.169" style="fill:none;fill-rule:nonzero;stroke:white;stroke-width:2.68px;"/>
                <path d="M-261.384,257.174L-269.671,253.241" style="fill:none;fill-rule:nonzero;stroke:white;stroke-width:2.68px;"/>
                <path d="M-276.646,278.913L-286.241,274.981" style="fill:none;fill-rule:nonzero;stroke:white;stroke-width:2.68px;"/>
                <path d="M-288.865,303.83L-298.889,300.338" style="fill:none;fill-rule:nonzero;stroke:white;stroke-width:2.68px;"/>
                <path d="M-298.455,333.058L-308.925,330.006" style="fill:none;fill-rule:nonzero;stroke:white;stroke-width:2.68px;"/>
                <path d="M-304.127,362.694L-315.028,361.404" style="fill:none;fill-rule:nonzero;stroke:white;stroke-width:2.68px;"/>
            </g>
        </g>
    </g>
</svg>
