<?xml version="1.0" encoding="UTF-8" standalone="no"?>
<!DOCTYPE svg PUBLIC "-//W3C//DTD SVG 1.1//EN" "http://www.w3.org/Graphics/SVG/1.1/DTD/svg11.dtd">
<svg width="100%" height="100%" viewBox="0 0 227 215" version="1.1" xmlns="http://www.w3.org/2000/svg" xmlnsXlink="http://www.w3.org/1999/xlink" xmlSpace="preserve" xmlnsSerif="http://www.serif.com/" style="fill-rule:evenodd;clip-rule:evenodd;">
    <g transform="matrix(1,0,0,1,-236.287,-12.4442)">
        <g transform="matrix(1,0,0,1,566.727,103)">
            <g id="WhiteKnight">
                <path d="M-164.466,-59.908C-164.466,-59.908 -167.956,-78.663 -167.956,-81.28C-167.956,-83.896 -170.569,-84.333 -173.188,-80.843C-175.806,-77.355 -187.581,-60.344 -187.581,-60.344L-164.489,-59.91L-164.466,-59.908Z" style="fill:white;fill-rule:nonzero;stroke:rgb(32,32,30);stroke-width:3.49px;"/>
                <path d="M-320.949,83.95C-319.766,75.492 -318.147,67.428 -316.179,59.763L-309.86,57.241L-314.078,52.193C-311.675,44.085 -308.881,36.45 -305.81,29.273L-299.83,27.583L-302.787,22.526C-299.575,15.701 -296.123,9.335 -292.542,3.407L-286.966,2.287L-288.966,-2.317C-284.949,-8.514 -280.822,-14.174 -276.729,-19.311L-270.827,-19.957L-272.403,-24.553C-267.613,-30.179 -262.944,-35.072 -258.628,-39.252L-252.724,-39.583L-253.757,-43.812C-243.228,-53.34 -235.788,-57.976 -235.788,-57.976L-222.412,-53.904C-222.412,-53.904 -216.017,-57.394 -210.782,-60.883C-210.782,-60.883 -207.295,-72.513 -206.134,-78.91C-204.968,-85.307 -201.48,-82.4 -200.318,-80.655C-199.152,-78.91 -187.086,-65.538 -187.086,-65.538C-187.086,-65.538 -179.868,-66.524 -174.728,-65.538C-167.171,-64.08 -163.681,-58.993 -154.954,-50.707C-148.596,-44.662 -144.78,-39.364 -142.6,-33.697C-140.42,-28.027 -143.035,-28.027 -142.165,-22.793C-141.288,-17.56 -117.738,21.692 -115.126,26.49C-112.503,31.288 -106.185,45.96 -118.611,55.275C-122.098,57.892 -124.719,59.204 -126.896,60.072C-126.896,60.072 -130.388,59.204 -131.693,57.459C-131.927,57.148 -132.047,56.957 -132.103,56.851C-132.145,56.734 -132.168,56.727 -132.103,56.851C-131.97,57.191 -131.666,58.466 -133.004,60.072C-135.185,62.692 -137.985,62.496 -139.545,62.692C-141.872,62.983 -146.087,60.95 -149.578,55.713C-153.068,50.479 -155.247,48.732 -157.867,45.68C-160.48,42.627 -174.916,35.873 -180.547,26.49C-181.854,24.313 -184.907,25.181 -187.087,26.927C-189.266,28.673 -201.481,29.11 -206.711,20.383C-206.711,20.383 -209.186,43.328 -198.861,59.203C-181.854,85.372 -153.067,91.91 -144.34,116.339L-323.236,116.339C-323.236,107.898 -322.79,99.793 -321.985,91.997L-316.039,88.86L-321.019,84.015L-320.949,83.95Z" style="fill:white;fill-rule:nonzero;stroke:rgb(32,32,30);stroke-width:3.49px;"/>
                <path d="M-228.803,-48.079C-228.803,-48.079 -304.976,8.916 -304.976,111.843" style="fill:none;fill-rule:nonzero;stroke:rgb(32,32,30);stroke-width:2.68px;"/>
                <path d="M-132.093,56.862C-132.155,56.736 -132.155,56.736 -132.093,56.862Z" style="fill:none;fill-rule:nonzero;stroke:rgb(32,32,30);stroke-width:2.68px;"/>
                <path d="M-213.104,-8.545C-214.558,7.734 -206.997,19.364 -206.706,20.381C-206.706,20.381 -225.028,10.934 -226.77,-1.572" style="fill:none;fill-rule:nonzero;stroke:rgb(32,32,30);stroke-width:2.68px;"/>
                <path d="M-206.718,20.399C-206.718,20.399 -218.933,26.364 -227.945,22.584" style="fill:none;fill-rule:nonzero;stroke:rgb(32,32,30);stroke-width:2.68px;"/>
                <path d="M-131.684,57.46C-131.684,57.46 -139.827,46.991 -142.156,42.194" style="fill:none;fill-rule:nonzero;stroke:rgb(32,32,30);stroke-width:2.68px;"/>
                <path d="M-181.864,-39.789C-181.864,-39.789 -168.453,-39.726 -163.979,-32.377C-157.876,-22.344 -164.852,-21.037 -164.852,-21.037C-164.852,-21.037 -171.829,-18.854 -176.628,-25.396C-181.736,-32.363 -177.501,-36.736 -177.501,-36.736L-181.842,-39.791L-181.864,-39.789Z" style="fill:none;fill-rule:nonzero;stroke:rgb(32,32,30);stroke-width:2.68px;"/>
                <path d="M-116.865,34.777C-121.668,33.469 -124.718,33.907 -126.895,35.215C-126.895,35.215 -124.718,28.672 -128.64,23C-132.57,17.331 -139.109,16.893 -144.779,5.99" style="fill:none;fill-rule:nonzero;stroke:rgb(32,32,30);stroke-width:2.68px;"/>
                <path d="M-244.219,-33.685L-252.493,-38.917" style="fill:none;fill-rule:nonzero;stroke:rgb(32,32,30);stroke-width:2.68px;"/>
                <path d="M-261.23,-14.932L-269.52,-18.855" style="fill:none;fill-rule:nonzero;stroke:rgb(32,32,30);stroke-width:2.68px;"/>
                <path d="M-276.492,6.839L-286.087,2.907" style="fill:none;fill-rule:nonzero;stroke:rgb(32,32,30);stroke-width:2.68px;"/>
                <path d="M-288.708,31.725L-298.738,28.233" style="fill:none;fill-rule:nonzero;stroke:rgb(32,32,30);stroke-width:2.68px;"/>
                <path d="M-298.3,60.952L-308.771,57.9" style="fill:none;fill-rule:nonzero;stroke:rgb(32,32,30);stroke-width:2.68px;"/>
                <path d="M-303.973,90.62L-314.874,89.298" style="fill:none;fill-rule:nonzero;stroke:rgb(32,32,30);stroke-width:2.68px;"/>
            </g>
        </g>
    </g>
</svg>
