<?xml version="1.0" encoding="UTF-8" standalone="no"?>
<!DOCTYPE svg PUBLIC "-//W3C//DTD SVG 1.1//EN" "http://www.w3.org/Graphics/SVG/1.1/DTD/svg11.dtd">
<svg width="100%" height="100%" viewBox="0 0 205 204" version="1.1" xmlns="http://www.w3.org/2000/svg" xmlnsXlink="http://www.w3.org/1999/xlink" xmlSpace="preserve" xmlnsSerif="http://www.serif.com/" style="fill-rule:evenodd;clip-rule:evenodd;">
    <g transform="matrix(1,0,0,1,-735.43,-11.0177)">
        <g transform="matrix(1,0,0,1,566.727,103)">
            <g id="WhiteQueen">
                <path d="M295.839,-84.13L245.19,-84.13L245.19,-31.197C245.19,-23.404 256.588,-17.079 270.641,-17.079C284.703,-17.079 295.739,-23.404 295.739,-31.197C295.739,-31.886 295.834,-84.13 295.834,-84.13L295.839,-84.13Z" style="fill:white;fill-rule:nonzero;stroke:rgb(32,32,30);stroke-width:3.81px;"/>
                <rect x="245.187" y="-84.13" width="50.649" height="45.386" style="fill:white;stroke:rgb(32,32,30);stroke-width:3.81px;"/>
                <path d="M245.187,-84.13L295.839,-38.748" style="fill:none;fill-rule:nonzero;stroke:rgb(32,32,30);stroke-width:3.81px;"/>
                <path d="M295.839,-84.13L245.187,-38.748" style="fill:none;fill-rule:nonzero;stroke:rgb(32,32,30);stroke-width:3.81px;"/>
                <path d="M335.92,93.609C316.214,83.885 294.794,78.772 271.334,78.772C247.873,78.772 225.439,84.224 205.728,93.946C225.439,103.67 247.493,109.27 270.95,109.27C294.42,109.301 316.222,103.355 335.917,93.634L335.92,93.609Z" style="fill:white;fill-rule:nonzero;stroke:rgb(32,32,30);stroke-width:3.81px;stroke-linejoin:round;"/>
                <path d="M345.767,60.26C346.898,59.271 348.019,58.258 349.119,57.191C372.936,34.018 378.392,0.992 361.304,-16.572C344.209,-34.139 311.051,-29.587 287.235,-6.415C280.12,0.505 274.66,8.308 270.934,16.312C267.21,8.308 261.747,0.505 254.635,-6.415C230.819,-29.587 197.653,-34.139 180.566,-16.572C163.473,0.992 168.928,34.02 192.748,57.191C193.851,58.261 194.977,59.278 196.116,60.268C216.68,52.545 242.675,47.931 270.952,47.931C299.204,47.931 325.19,52.555 345.734,60.263L345.767,60.26Z" style="fill:white;fill-rule:nonzero;stroke:rgb(32,32,30);stroke-width:3.81px;stroke-linejoin:bevel;"/>
                <path d="M270.953,16.341C274.68,8.334 280.139,0.533 287.255,-6.384C293.053,-12.031 299.412,-16.563 305.959,-19.947C295.102,-23.001 283.31,-24.677 270.972,-24.677C258.627,-24.677 246.823,-22.996 235.962,-19.937C242.5,-16.555 248.857,-12.026 254.654,-6.384C261.765,0.538 267.207,8.34 270.951,16.331L270.953,16.341Z" style="fill:white;fill-rule:nonzero;stroke:rgb(32,32,30);stroke-width:3.81px;"/>
                <path d="M345.484,60.26L345.472,60.243C324.918,52.53 298.938,47.923 270.686,47.923C242.41,47.923 216.416,52.538 195.853,60.26C195.853,60.26 205.717,67.986 207.144,73.692C208.57,79.395 209.181,87.573 205.754,93.931C225.462,84.209 247.899,78.757 271.359,78.757C294.371,78.757 316.525,84.218 335.946,93.593C332.812,87.315 332.806,79.238 334.194,73.692C335.61,68.029 345.489,60.29 345.489,60.29L345.484,60.26Z" style="fill:white;fill-rule:nonzero;stroke:rgb(32,32,30);stroke-width:3.81px;stroke-linejoin:bevel;"/>
                <path d="M205.735,93.955C225.442,84.232 247.88,78.78 271.34,78.78C294.352,78.78 316.502,84.241 335.926,93.617C334.593,90.935 333.192,84.085 333.416,80.264C313.894,72.59 292.901,68.394 271.029,68.394C248.905,68.394 227.689,72.677 207.981,80.513C208.233,87.592 207.226,91.147 205.748,93.915L205.735,93.955Z" style="fill:white;fill-rule:nonzero;stroke:rgb(32,32,30);stroke-width:3.81px;stroke-linejoin:bevel;"/>
                <path d="M261.326,58.435L271.079,63.312L280.8,58.435L271.079,53.559L261.326,58.435Z" style="fill-rule:nonzero;"/>
                <path d="M221.465,64.79L231.847,68.031L240.688,61.644L230.306,58.404L221.465,64.79Z" style="fill-rule:nonzero;"/>
                <path d="M320.661,64.79L310.279,68.031L301.439,61.644L311.821,58.404L320.661,64.79Z" style="fill-rule:nonzero;"/>
                <ellipse cx="270.953" cy="-23.958" rx="17.93" ry="13.239" style="fill:white;stroke:rgb(32,32,30);stroke-width:3.81px;"/>
            </g>
        </g>
    </g>
</svg>
